# xmcd CD database file
#
# Track frame offsets:
#	150
#	14140
#	23086
#	40224
#	56846
#	69895
#	86194
#	102008
#	117895
#	136336
#	155822
#	171439
#	185366
#	200346
#
# Disc length: 2929 seconds
#
# Revision: 0
# Processed by: cddbd v1.5.1PL2 Copyright (c) Steve Scherf et al.
# Submitted via: CDex 1.51
#
DISCID=c20b6f0e
DTITLE=Jonny Hill - Country Blue CD1
DYEAR=2005
DGENRE=Country
TTITLE0=Elvis zum Frühstück
TTITLE1=Ein Ring aus Feuer ( Ring of Fire )
TTITLE2=Das hab' ich beim Friseur gehört
TTITLE3=Wieviel wert sind 20 Jahre
TTITLE4=Gott sei dank gibt's das Radio
TTITLE5=Mach einen Adler über Rosie
TTITLE6=Ich möcht so gern Dave Dudley hör'n
TTITLE7=Jambalaya
TTITLE8=Country Blue (Medley)
TTITLE9=10 Tonnen Kerosin
TTITLE10=Westwärts
TTITLE11=Ich und Fred
TTITLE12=Das Schicksal
TTITLE13=50.000 Kilometer
EXTD=YEAR: 2005
EXTT0=
EXTT1=
EXTT2=
EXTT3=
EXTT4=
EXTT5=
EXTT6=
EXTT7=
EXTT8=
EXTT9=
EXTT10=
EXTT11=
EXTT12=
EXTT13=
PLAYORDER=
